<mxfile host="app.diagrams.net" modified="2023-09-25T03:12:08.667Z" agent="Mozilla/5.0 (Windows NT 10.0; Win64; x64) AppleWebKit/537.36 (KHTML, like Gecko) Chrome/116.0.0.0 Safari/537.36" etag="vUc4DPgQuyWg3vVz2HGN" version="21.8.2" type="device">
  <diagram name="ページ1" id="Jhfju1AW9liaCJ5u8Huk">
    <mxGraphModel dx="1032" dy="-654" grid="1" gridSize="10" guides="1" tooltips="1" connect="1" arrows="1" fold="1" page="1" pageScale="1" pageWidth="827" pageHeight="1169" math="0" shadow="0">
      <root>
        <mxCell id="0" />
        <mxCell id="1" parent="0" />
        <mxCell id="ifBIQLZX5WPQYEV2Vhft-1" value="ユーザー登録" style="rounded=0;whiteSpace=wrap;html=1;" parent="1" vertex="1">
          <mxGeometry x="370" y="1180" width="90" height="20" as="geometry" />
        </mxCell>
        <mxCell id="ifBIQLZX5WPQYEV2Vhft-2" value="ログイン画面" style="rounded=0;whiteSpace=wrap;html=1;" parent="1" vertex="1">
          <mxGeometry x="375" y="1360" width="80" height="20" as="geometry" />
        </mxCell>
        <mxCell id="ifBIQLZX5WPQYEV2Vhft-3" value="" style="group" parent="1" vertex="1" connectable="0">
          <mxGeometry x="318" y="1390" width="191" height="120" as="geometry" />
        </mxCell>
        <mxCell id="ifBIQLZX5WPQYEV2Vhft-4" value="ユーザーID&lt;br&gt;&lt;br&gt;パスワード&lt;br&gt;&lt;br&gt;&lt;br&gt;&lt;br&gt;&lt;br&gt;　　　　　　　　　トップへ戻る" style="rounded=0;whiteSpace=wrap;html=1;verticalAlign=top;align=left;" parent="ifBIQLZX5WPQYEV2Vhft-3" vertex="1">
          <mxGeometry width="191" height="120" as="geometry" />
        </mxCell>
        <mxCell id="ifBIQLZX5WPQYEV2Vhft-5" value="" style="rounded=0;whiteSpace=wrap;html=1;" parent="ifBIQLZX5WPQYEV2Vhft-3" vertex="1">
          <mxGeometry x="80.42105263157895" y="10.003333333333332" width="80.42105263157895" height="13.333333333333332" as="geometry" />
        </mxCell>
        <mxCell id="ifBIQLZX5WPQYEV2Vhft-6" value="" style="rounded=0;whiteSpace=wrap;html=1;" parent="ifBIQLZX5WPQYEV2Vhft-3" vertex="1">
          <mxGeometry x="80.42105263157895" y="40.00333333333333" width="80.42105263157895" height="13.333333333333332" as="geometry" />
        </mxCell>
        <mxCell id="ifBIQLZX5WPQYEV2Vhft-7" value="ログイン" style="rounded=0;whiteSpace=wrap;html=1;" parent="ifBIQLZX5WPQYEV2Vhft-3" vertex="1">
          <mxGeometry x="50.26315789473684" y="60" width="60.31578947368421" height="26.666666666666664" as="geometry" />
        </mxCell>
        <mxCell id="ifBIQLZX5WPQYEV2Vhft-8" value="ログイン" style="rounded=0;whiteSpace=wrap;html=1;fillColor=none;strokeColor=none;" parent="1" vertex="1">
          <mxGeometry x="269" y="1375" width="20" height="60" as="geometry" />
        </mxCell>
        <mxCell id="ifBIQLZX5WPQYEV2Vhft-9" value="新規登録" style="rounded=0;whiteSpace=wrap;html=1;fillColor=none;strokeColor=none;" parent="1" vertex="1">
          <mxGeometry x="250" y="1185.34" width="20" height="60" as="geometry" />
        </mxCell>
        <mxCell id="ifBIQLZX5WPQYEV2Vhft-10" value="" style="endArrow=classic;html=1;rounded=0;entryX=1.003;entryY=0.125;entryDx=0;entryDy=0;exitX=0.002;exitY=0.632;exitDx=0;exitDy=0;exitPerimeter=0;entryPerimeter=0;" parent="1" source="ifBIQLZX5WPQYEV2Vhft-58" target="ifBIQLZX5WPQYEV2Vhft-13" edge="1">
          <mxGeometry width="50" height="50" relative="1" as="geometry">
            <mxPoint x="430" y="800" as="sourcePoint" />
            <mxPoint x="480" y="750" as="targetPoint" />
          </mxGeometry>
        </mxCell>
        <mxCell id="ifBIQLZX5WPQYEV2Vhft-11" value="" style="endArrow=classic;html=1;rounded=0;exitX=1.022;exitY=0.602;exitDx=0;exitDy=0;entryX=0;entryY=0.75;entryDx=0;entryDy=0;exitPerimeter=0;" parent="1" source="ifBIQLZX5WPQYEV2Vhft-13" target="ifBIQLZX5WPQYEV2Vhft-58" edge="1">
          <mxGeometry width="50" height="50" relative="1" as="geometry">
            <mxPoint x="430" y="800" as="sourcePoint" />
            <mxPoint x="550" y="1625" as="targetPoint" />
          </mxGeometry>
        </mxCell>
        <mxCell id="ifBIQLZX5WPQYEV2Vhft-12" value="" style="group" parent="1" vertex="1" connectable="0">
          <mxGeometry x="310" y="1590" width="170" height="170" as="geometry" />
        </mxCell>
        <mxCell id="ifBIQLZX5WPQYEV2Vhft-13" value="ユーザーID&lt;br&gt;&lt;br&gt;お名前&lt;br&gt;&lt;br&gt;パスワード&lt;br&gt;&lt;br&gt;&lt;br&gt;&lt;br&gt;&lt;div style=&quot;text-align: right;&quot;&gt;　　　　　　　　トップへ戻る&lt;/div&gt;" style="rounded=0;whiteSpace=wrap;html=1;verticalAlign=top;align=left;" parent="ifBIQLZX5WPQYEV2Vhft-12" vertex="1">
          <mxGeometry width="170" height="140" as="geometry" />
        </mxCell>
        <mxCell id="ifBIQLZX5WPQYEV2Vhft-14" value="" style="rounded=0;whiteSpace=wrap;html=1;" parent="ifBIQLZX5WPQYEV2Vhft-12" vertex="1">
          <mxGeometry x="64.5" y="10" width="90" height="10" as="geometry" />
        </mxCell>
        <mxCell id="ifBIQLZX5WPQYEV2Vhft-15" value="" style="rounded=0;whiteSpace=wrap;html=1;" parent="ifBIQLZX5WPQYEV2Vhft-12" vertex="1">
          <mxGeometry x="64.5" y="40" width="90" height="10" as="geometry" />
        </mxCell>
        <mxCell id="ifBIQLZX5WPQYEV2Vhft-16" value="" style="rounded=0;whiteSpace=wrap;html=1;" parent="ifBIQLZX5WPQYEV2Vhft-12" vertex="1">
          <mxGeometry x="64.5" y="65" width="90" height="10" as="geometry" />
        </mxCell>
        <mxCell id="ifBIQLZX5WPQYEV2Vhft-17" value="更新" style="rounded=0;whiteSpace=wrap;html=1;" parent="ifBIQLZX5WPQYEV2Vhft-12" vertex="1">
          <mxGeometry x="43.5" y="90" width="60" height="20" as="geometry" />
        </mxCell>
        <mxCell id="ifBIQLZX5WPQYEV2Vhft-18" value="ユーザー情報編集" style="rounded=0;whiteSpace=wrap;html=1;" parent="ifBIQLZX5WPQYEV2Vhft-12" vertex="1">
          <mxGeometry x="34.75" y="-30" width="100.5" height="20" as="geometry" />
        </mxCell>
        <mxCell id="ifBIQLZX5WPQYEV2Vhft-19" value="ペット情報編集画面" style="rounded=0;whiteSpace=wrap;html=1;" parent="1" vertex="1">
          <mxGeometry x="115" y="1810" width="110" height="31" as="geometry" />
        </mxCell>
        <mxCell id="ifBIQLZX5WPQYEV2Vhft-20" value="ペペ　オハナ（仮）&lt;br&gt;”プルダウンメニュー”&lt;br&gt;（ログイン処理前）新規登録　ログイン&lt;br&gt;(ログイン処理後)マイページ　ログアウト&lt;br&gt;新着ネコちゃん情報&lt;br&gt;&lt;br&gt;&lt;br&gt;&lt;br&gt;&lt;br&gt;&lt;br&gt;&lt;br&gt;&lt;br&gt;&lt;br&gt;&lt;br&gt;&lt;br&gt;&lt;br&gt;&lt;br&gt;&lt;br&gt;&lt;br&gt;&lt;br&gt;里親募集検索" style="rounded=0;whiteSpace=wrap;html=1;verticalAlign=top;" parent="1" vertex="1">
          <mxGeometry x="10" y="1210" width="220" height="420" as="geometry" />
        </mxCell>
        <mxCell id="ifBIQLZX5WPQYEV2Vhft-21" value="トップページ" style="rounded=0;whiteSpace=wrap;html=1;" parent="1" vertex="1">
          <mxGeometry x="62.5" y="1185.34" width="90" height="20" as="geometry" />
        </mxCell>
        <mxCell id="ifBIQLZX5WPQYEV2Vhft-22" value="" style="group" parent="1" vertex="1" connectable="0">
          <mxGeometry x="22.5" y="1310" width="55" height="90" as="geometry" />
        </mxCell>
        <mxCell id="ifBIQLZX5WPQYEV2Vhft-23" value="&lt;br&gt;名前&lt;br&gt;性別&lt;br&gt;年齢" style="rounded=0;whiteSpace=wrap;html=1;" parent="ifBIQLZX5WPQYEV2Vhft-22" vertex="1">
          <mxGeometry width="55" height="90" as="geometry" />
        </mxCell>
        <mxCell id="ifBIQLZX5WPQYEV2Vhft-24" value="写真" style="ellipse;whiteSpace=wrap;html=1;" parent="ifBIQLZX5WPQYEV2Vhft-22" vertex="1">
          <mxGeometry width="52.5" height="20" as="geometry" />
        </mxCell>
        <mxCell id="ifBIQLZX5WPQYEV2Vhft-25" value="" style="group" parent="1" vertex="1" connectable="0">
          <mxGeometry x="85" y="1310" width="55" height="90" as="geometry" />
        </mxCell>
        <mxCell id="ifBIQLZX5WPQYEV2Vhft-26" value="&lt;br&gt;名前&lt;br&gt;性別&lt;br&gt;年齢" style="rounded=0;whiteSpace=wrap;html=1;" parent="ifBIQLZX5WPQYEV2Vhft-25" vertex="1">
          <mxGeometry width="55" height="90" as="geometry" />
        </mxCell>
        <mxCell id="ifBIQLZX5WPQYEV2Vhft-27" value="写真" style="ellipse;whiteSpace=wrap;html=1;" parent="ifBIQLZX5WPQYEV2Vhft-25" vertex="1">
          <mxGeometry width="52.5" height="20" as="geometry" />
        </mxCell>
        <mxCell id="ifBIQLZX5WPQYEV2Vhft-28" value="" style="group" parent="1" vertex="1" connectable="0">
          <mxGeometry x="150" y="1310" width="55" height="90" as="geometry" />
        </mxCell>
        <mxCell id="ifBIQLZX5WPQYEV2Vhft-29" value="&lt;br&gt;名前&lt;br&gt;性別&lt;br&gt;年齢" style="rounded=0;whiteSpace=wrap;html=1;" parent="ifBIQLZX5WPQYEV2Vhft-28" vertex="1">
          <mxGeometry width="55" height="90" as="geometry" />
        </mxCell>
        <mxCell id="ifBIQLZX5WPQYEV2Vhft-30" value="写真" style="ellipse;whiteSpace=wrap;html=1;" parent="ifBIQLZX5WPQYEV2Vhft-28" vertex="1">
          <mxGeometry width="52.5" height="20" as="geometry" />
        </mxCell>
        <mxCell id="ifBIQLZX5WPQYEV2Vhft-31" value="" style="group" parent="1" vertex="1" connectable="0">
          <mxGeometry x="20" y="1410" width="55" height="90" as="geometry" />
        </mxCell>
        <mxCell id="ifBIQLZX5WPQYEV2Vhft-32" value="" style="group" parent="ifBIQLZX5WPQYEV2Vhft-31" vertex="1" connectable="0">
          <mxGeometry width="55" height="90" as="geometry" />
        </mxCell>
        <mxCell id="ifBIQLZX5WPQYEV2Vhft-33" value="&lt;br&gt;名前&lt;br&gt;性別&lt;br&gt;年齢" style="rounded=0;whiteSpace=wrap;html=1;" parent="ifBIQLZX5WPQYEV2Vhft-32" vertex="1">
          <mxGeometry width="55" height="90" as="geometry" />
        </mxCell>
        <mxCell id="ifBIQLZX5WPQYEV2Vhft-34" value="写真" style="ellipse;whiteSpace=wrap;html=1;" parent="ifBIQLZX5WPQYEV2Vhft-32" vertex="1">
          <mxGeometry width="52.5" height="20" as="geometry" />
        </mxCell>
        <mxCell id="ifBIQLZX5WPQYEV2Vhft-35" value="" style="group" parent="1" vertex="1" connectable="0">
          <mxGeometry x="85" y="1410" width="55" height="90" as="geometry" />
        </mxCell>
        <mxCell id="ifBIQLZX5WPQYEV2Vhft-36" value="&lt;br&gt;名前&lt;br&gt;性別&lt;br&gt;年齢" style="rounded=0;whiteSpace=wrap;html=1;" parent="ifBIQLZX5WPQYEV2Vhft-35" vertex="1">
          <mxGeometry width="55" height="90" as="geometry" />
        </mxCell>
        <mxCell id="ifBIQLZX5WPQYEV2Vhft-37" value="写真" style="ellipse;whiteSpace=wrap;html=1;" parent="ifBIQLZX5WPQYEV2Vhft-35" vertex="1">
          <mxGeometry width="52.5" height="20" as="geometry" />
        </mxCell>
        <mxCell id="ifBIQLZX5WPQYEV2Vhft-38" value="" style="group" parent="1" vertex="1" connectable="0">
          <mxGeometry x="150" y="1410" width="55" height="90" as="geometry" />
        </mxCell>
        <mxCell id="ifBIQLZX5WPQYEV2Vhft-39" value="&lt;br&gt;名前&lt;br&gt;性別&lt;br&gt;年齢" style="rounded=0;whiteSpace=wrap;html=1;" parent="ifBIQLZX5WPQYEV2Vhft-38" vertex="1">
          <mxGeometry width="55" height="90" as="geometry" />
        </mxCell>
        <mxCell id="ifBIQLZX5WPQYEV2Vhft-40" value="写真" style="ellipse;whiteSpace=wrap;html=1;" parent="ifBIQLZX5WPQYEV2Vhft-38" vertex="1">
          <mxGeometry width="52.5" height="20" as="geometry" />
        </mxCell>
        <mxCell id="ifBIQLZX5WPQYEV2Vhft-41" value="猫　オス、メス　　子猫、成猫、老猫" style="rounded=1;whiteSpace=wrap;html=1;verticalAlign=top;align=left;" parent="1" vertex="1">
          <mxGeometry x="15" y="1550" width="210" height="30" as="geometry" />
        </mxCell>
        <mxCell id="ifBIQLZX5WPQYEV2Vhft-42" value="絞り込み検索" style="rounded=0;whiteSpace=wrap;html=1;" parent="1" vertex="1">
          <mxGeometry x="80" y="1600" width="80" height="20" as="geometry" />
        </mxCell>
        <mxCell id="ifBIQLZX5WPQYEV2Vhft-43" value="" style="group" parent="1" vertex="1" connectable="0">
          <mxGeometry x="328.5" y="1205.34" width="170" height="140" as="geometry" />
        </mxCell>
        <mxCell id="ifBIQLZX5WPQYEV2Vhft-44" value="ユーザーID&lt;br&gt;&lt;br&gt;お名前&lt;br&gt;&lt;br&gt;パスワード&lt;br&gt;&lt;br&gt;&lt;br&gt;&lt;br&gt;&lt;div style=&quot;text-align: right;&quot;&gt;　　　　　　　　トップへ戻る&lt;/div&gt;" style="rounded=0;whiteSpace=wrap;html=1;verticalAlign=top;align=left;" parent="ifBIQLZX5WPQYEV2Vhft-43" vertex="1">
          <mxGeometry width="170" height="140" as="geometry" />
        </mxCell>
        <mxCell id="ifBIQLZX5WPQYEV2Vhft-45" value="登録" style="rounded=0;whiteSpace=wrap;html=1;" parent="ifBIQLZX5WPQYEV2Vhft-43" vertex="1">
          <mxGeometry x="49" y="90" width="60" height="20" as="geometry" />
        </mxCell>
        <mxCell id="ifBIQLZX5WPQYEV2Vhft-46" value="" style="rounded=0;whiteSpace=wrap;html=1;" parent="ifBIQLZX5WPQYEV2Vhft-43" vertex="1">
          <mxGeometry x="65" y="10" width="90" height="10" as="geometry" />
        </mxCell>
        <mxCell id="ifBIQLZX5WPQYEV2Vhft-47" value="" style="rounded=0;whiteSpace=wrap;html=1;" parent="ifBIQLZX5WPQYEV2Vhft-43" vertex="1">
          <mxGeometry x="65" y="40" width="90" height="10" as="geometry" />
        </mxCell>
        <mxCell id="ifBIQLZX5WPQYEV2Vhft-48" value="" style="rounded=0;whiteSpace=wrap;html=1;" parent="ifBIQLZX5WPQYEV2Vhft-43" vertex="1">
          <mxGeometry x="65" y="65" width="90" height="10" as="geometry" />
        </mxCell>
        <mxCell id="45_v_wAbbeRh8CHD0ImP-1" value="" style="endArrow=classic;html=1;rounded=0;exitX=-0.008;exitY=0.906;exitDx=0;exitDy=0;exitPerimeter=0;entryX=-0.015;entryY=0.652;entryDx=0;entryDy=0;entryPerimeter=0;" parent="ifBIQLZX5WPQYEV2Vhft-43" source="ifBIQLZX5WPQYEV2Vhft-44" target="ifBIQLZX5WPQYEV2Vhft-44" edge="1">
          <mxGeometry width="50" height="50" relative="1" as="geometry">
            <mxPoint x="61.5" y="254.66000000000008" as="sourcePoint" />
            <mxPoint x="-88.5" y="84.66000000000008" as="targetPoint" />
            <Array as="points">
              <mxPoint x="-38.5" y="126.66000000000008" />
              <mxPoint x="-38.5" y="91.66000000000008" />
            </Array>
          </mxGeometry>
        </mxCell>
        <mxCell id="ifBIQLZX5WPQYEV2Vhft-49" value="" style="group" parent="1" vertex="1" connectable="0">
          <mxGeometry x="620" y="1930" width="120" height="310" as="geometry" />
        </mxCell>
        <mxCell id="ifBIQLZX5WPQYEV2Vhft-50" value="メッセージ送信画面" style="rounded=0;whiteSpace=wrap;html=1;" parent="ifBIQLZX5WPQYEV2Vhft-49" vertex="1">
          <mxGeometry width="120" height="26.95652173913044" as="geometry" />
        </mxCell>
        <mxCell id="ifBIQLZX5WPQYEV2Vhft-51" value="" style="group" parent="ifBIQLZX5WPQYEV2Vhft-49" vertex="1" connectable="0">
          <mxGeometry y="40.434782608695656" width="120" height="269.5652173913044" as="geometry" />
        </mxCell>
        <mxCell id="ifBIQLZX5WPQYEV2Vhft-52" value="送信者　ID ○○&lt;br&gt;送信相手　ID ○○&lt;br&gt;受信メッセージ&lt;br&gt;&lt;br&gt;&lt;br&gt;&lt;br&gt;&lt;br&gt;メッセージ&lt;br&gt;&lt;br&gt;&lt;br&gt;&lt;br&gt;&lt;br&gt;&lt;br&gt;&lt;br&gt;&lt;br&gt;&lt;br&gt;&lt;br&gt;　　　　前へ戻る" style="rounded=0;whiteSpace=wrap;html=1;verticalAlign=top;" parent="ifBIQLZX5WPQYEV2Vhft-51" vertex="1">
          <mxGeometry width="120" height="269.5652173913044" as="geometry" />
        </mxCell>
        <mxCell id="ifBIQLZX5WPQYEV2Vhft-53" value="" style="rounded=0;whiteSpace=wrap;html=1;" parent="ifBIQLZX5WPQYEV2Vhft-51" vertex="1">
          <mxGeometry x="15" y="129.57" width="90" height="75.87" as="geometry" />
        </mxCell>
        <mxCell id="ifBIQLZX5WPQYEV2Vhft-54" value="送信" style="rounded=0;whiteSpace=wrap;html=1;" parent="ifBIQLZX5WPQYEV2Vhft-51" vertex="1">
          <mxGeometry x="30" y="219.56457971014495" width="50" height="26.95652173913044" as="geometry" />
        </mxCell>
        <mxCell id="ifBIQLZX5WPQYEV2Vhft-137" value="" style="endArrow=classic;html=1;rounded=0;exitX=1;exitY=0.75;exitDx=0;exitDy=0;entryX=1;entryY=0.5;entryDx=0;entryDy=0;" parent="ifBIQLZX5WPQYEV2Vhft-51" source="ifBIQLZX5WPQYEV2Vhft-52" target="ifBIQLZX5WPQYEV2Vhft-52" edge="1">
          <mxGeometry width="50" height="50" relative="1" as="geometry">
            <mxPoint x="130" y="188.69565217391306" as="sourcePoint" />
            <mxPoint x="130" y="121.30434782608698" as="targetPoint" />
            <Array as="points">
              <mxPoint x="160" y="202.17391304347828" />
              <mxPoint x="160" y="134.7826086956522" />
            </Array>
          </mxGeometry>
        </mxCell>
        <mxCell id="YjMoN631CVRs8-Bf5MVm-1" value="" style="rounded=0;whiteSpace=wrap;html=1;" vertex="1" parent="ifBIQLZX5WPQYEV2Vhft-51">
          <mxGeometry x="15" y="49.57" width="90" height="50" as="geometry" />
        </mxCell>
        <mxCell id="ifBIQLZX5WPQYEV2Vhft-55" value="" style="group" parent="1" vertex="1" connectable="0">
          <mxGeometry x="550" y="1190" width="230" height="640" as="geometry" />
        </mxCell>
        <mxCell id="ifBIQLZX5WPQYEV2Vhft-56" value="マイページ" style="rounded=0;whiteSpace=wrap;html=1;" parent="ifBIQLZX5WPQYEV2Vhft-55" vertex="1">
          <mxGeometry x="70" width="80" height="20" as="geometry" />
        </mxCell>
        <mxCell id="ifBIQLZX5WPQYEV2Vhft-57" value="" style="group" parent="ifBIQLZX5WPQYEV2Vhft-55" vertex="1" connectable="0">
          <mxGeometry y="30" width="230" height="610" as="geometry" />
        </mxCell>
        <mxCell id="ifBIQLZX5WPQYEV2Vhft-58" value="ユーザーID　○○&lt;br&gt;名前　○○&lt;br&gt;&lt;u&gt;ユーザー情報の編集&lt;/u&gt;&lt;br&gt;&lt;br&gt;&lt;u&gt;ネコちゃん情報を登録する&lt;br&gt;&lt;/u&gt;&lt;br&gt;ネコちゃん登録情報&lt;br&gt;&lt;br&gt;&lt;br&gt;&lt;br&gt;名前　○○&lt;br&gt;性別　○○&lt;br&gt;年齢　○○歳&lt;br&gt;コメント　　　　&lt;br&gt;&lt;br&gt;&lt;br&gt;&lt;br&gt;&lt;span style=&quot;text-align: right; background-color: initial;&quot;&gt;&lt;br&gt;&lt;br&gt;&lt;br&gt;&lt;br&gt;&lt;br&gt;&lt;br&gt;&lt;br&gt;&lt;br&gt;&lt;br&gt;&lt;br&gt;&lt;br&gt;&lt;br&gt;&lt;br&gt;&lt;br&gt;&lt;br&gt;&lt;br&gt;&lt;br&gt;&lt;br&gt;&lt;br&gt;&lt;br&gt;&lt;br&gt;　　　　　　　　　　ログアウト&lt;/span&gt;&lt;br&gt;&lt;div style=&quot;text-align: right;&quot;&gt;トップへ戻る&lt;/div&gt;" style="rounded=0;whiteSpace=wrap;html=1;verticalAlign=top;" parent="ifBIQLZX5WPQYEV2Vhft-57" vertex="1">
          <mxGeometry width="230" height="610" as="geometry" />
        </mxCell>
        <mxCell id="ifBIQLZX5WPQYEV2Vhft-59" value="写真" style="ellipse;whiteSpace=wrap;html=1;" parent="ifBIQLZX5WPQYEV2Vhft-57" vertex="1">
          <mxGeometry x="67.5" y="110" width="95" height="44.29" as="geometry" />
        </mxCell>
        <mxCell id="ifBIQLZX5WPQYEV2Vhft-60" value="" style="rounded=0;whiteSpace=wrap;html=1;" parent="ifBIQLZX5WPQYEV2Vhft-57" vertex="1">
          <mxGeometry x="120" y="210" width="80" height="40" as="geometry" />
        </mxCell>
        <mxCell id="ifBIQLZX5WPQYEV2Vhft-61" value="編集、削除する" style="rounded=0;whiteSpace=wrap;html=1;" parent="ifBIQLZX5WPQYEV2Vhft-57" vertex="1">
          <mxGeometry x="70" y="270" width="90" height="31.43" as="geometry" />
        </mxCell>
        <mxCell id="ifBIQLZX5WPQYEV2Vhft-63" value="メッセージ受信履歴&lt;br&gt;&lt;span style=&quot;background-color: initial;&quot;&gt;送信者ID メッセージ　時間　返信&lt;br&gt;&lt;ol&gt;&lt;li&gt;&lt;span style=&quot;background-color: initial;&quot;&gt;○○　　○○　　　○○　返信&lt;/span&gt;&lt;/li&gt;&lt;li style=&quot;border-color: var(--border-color);&quot;&gt;○○　　○○　　　○○　返信&lt;/li&gt;&lt;li style=&quot;border-color: var(--border-color);&quot;&gt;○○　　○○　　　○○　返信&lt;/li&gt;&lt;/ol&gt;&lt;/span&gt;&lt;div style=&quot;text-align: justify;&quot;&gt;&lt;/div&gt;" style="rounded=0;whiteSpace=wrap;html=1;verticalAlign=top;" parent="ifBIQLZX5WPQYEV2Vhft-57" vertex="1">
          <mxGeometry x="19.899999999999977" y="330" width="200.21" height="100" as="geometry" />
        </mxCell>
        <mxCell id="ifBIQLZX5WPQYEV2Vhft-64" value="メッセージ送信履歴&lt;br&gt;&lt;span style=&quot;background-color: initial;&quot;&gt;送信者ID メッセージ　時間　&lt;br&gt;&lt;ol&gt;&lt;li&gt;&lt;span style=&quot;background-color: initial;&quot;&gt;○○　　○○　　　○○　&lt;/span&gt;&lt;/li&gt;&lt;li style=&quot;border-color: var(--border-color);&quot;&gt;○○　　○○　　　○○　&lt;/li&gt;&lt;li style=&quot;border-color: var(--border-color);&quot;&gt;○○　　○○　　　○○　&lt;/li&gt;&lt;/ol&gt;&lt;/span&gt;&lt;div style=&quot;text-align: justify;&quot;&gt;&lt;/div&gt;" style="rounded=0;whiteSpace=wrap;html=1;verticalAlign=top;" parent="ifBIQLZX5WPQYEV2Vhft-57" vertex="1">
          <mxGeometry x="19.889999999999986" y="440" width="200.21" height="100" as="geometry" />
        </mxCell>
        <mxCell id="ifBIQLZX5WPQYEV2Vhft-65" value="" style="endArrow=classic;html=1;rounded=0;exitX=1.012;exitY=0.142;exitDx=0;exitDy=0;exitPerimeter=0;entryX=-0.03;entryY=0.444;entryDx=0;entryDy=0;entryPerimeter=0;" parent="1" source="ifBIQLZX5WPQYEV2Vhft-20" target="ifBIQLZX5WPQYEV2Vhft-44" edge="1">
          <mxGeometry width="50" height="50" relative="1" as="geometry">
            <mxPoint x="390" y="1400" as="sourcePoint" />
            <mxPoint x="440" y="1350" as="targetPoint" />
          </mxGeometry>
        </mxCell>
        <mxCell id="ifBIQLZX5WPQYEV2Vhft-66" value="" style="endArrow=classic;html=1;rounded=0;entryX=0.216;entryY=-0.019;entryDx=0;entryDy=0;exitX=0.188;exitY=1.001;exitDx=0;exitDy=0;exitPerimeter=0;entryPerimeter=0;" parent="1" source="ifBIQLZX5WPQYEV2Vhft-44" target="ifBIQLZX5WPQYEV2Vhft-4" edge="1">
          <mxGeometry width="50" height="50" relative="1" as="geometry">
            <mxPoint x="390" y="1400" as="sourcePoint" />
            <mxPoint x="440" y="1350" as="targetPoint" />
          </mxGeometry>
        </mxCell>
        <mxCell id="ifBIQLZX5WPQYEV2Vhft-67" value="" style="endArrow=classic;html=1;rounded=0;exitX=1;exitY=0.59;exitDx=0;exitDy=0;exitPerimeter=0;entryX=0.002;entryY=0.396;entryDx=0;entryDy=0;entryPerimeter=0;" parent="1" source="ifBIQLZX5WPQYEV2Vhft-20" target="ifBIQLZX5WPQYEV2Vhft-4" edge="1">
          <mxGeometry width="50" height="50" relative="1" as="geometry">
            <mxPoint x="390" y="1400" as="sourcePoint" />
            <mxPoint x="440" y="1350" as="targetPoint" />
          </mxGeometry>
        </mxCell>
        <mxCell id="ifBIQLZX5WPQYEV2Vhft-68" value="" style="endArrow=classic;html=1;rounded=0;exitX=0;exitY=0.75;exitDx=0;exitDy=0;entryX=1.002;entryY=0.695;entryDx=0;entryDy=0;entryPerimeter=0;" parent="1" source="ifBIQLZX5WPQYEV2Vhft-4" target="ifBIQLZX5WPQYEV2Vhft-20" edge="1">
          <mxGeometry width="50" height="50" relative="1" as="geometry">
            <mxPoint x="390" y="1630" as="sourcePoint" />
            <mxPoint x="440" y="1580" as="targetPoint" />
          </mxGeometry>
        </mxCell>
        <mxCell id="ifBIQLZX5WPQYEV2Vhft-69" value="" style="endArrow=classic;html=1;rounded=0;exitX=1;exitY=0.75;exitDx=0;exitDy=0;entryX=0;entryY=0.5;entryDx=0;entryDy=0;" parent="1" source="ifBIQLZX5WPQYEV2Vhft-20" target="ifBIQLZX5WPQYEV2Vhft-58" edge="1">
          <mxGeometry width="50" height="50" relative="1" as="geometry">
            <mxPoint x="390" y="1400" as="sourcePoint" />
            <mxPoint x="440" y="1350" as="targetPoint" />
          </mxGeometry>
        </mxCell>
        <mxCell id="ifBIQLZX5WPQYEV2Vhft-70" value="" style="endArrow=classic;html=1;rounded=0;exitX=-0.022;exitY=0.539;exitDx=0;exitDy=0;exitPerimeter=0;entryX=1.017;entryY=0.801;entryDx=0;entryDy=0;entryPerimeter=0;" parent="1" source="ifBIQLZX5WPQYEV2Vhft-58" target="ifBIQLZX5WPQYEV2Vhft-20" edge="1">
          <mxGeometry width="50" height="50" relative="1" as="geometry">
            <mxPoint x="390" y="1400" as="sourcePoint" />
            <mxPoint x="440" y="1350" as="targetPoint" />
          </mxGeometry>
        </mxCell>
        <mxCell id="ifBIQLZX5WPQYEV2Vhft-71" value="" style="group" parent="1" vertex="1" connectable="0">
          <mxGeometry x="280" y="1790" width="250" height="380" as="geometry" />
        </mxCell>
        <mxCell id="ifBIQLZX5WPQYEV2Vhft-72" value="ペット登録画面" style="rounded=0;whiteSpace=wrap;html=1;" parent="ifBIQLZX5WPQYEV2Vhft-71" vertex="1">
          <mxGeometry x="80" width="90" height="30" as="geometry" />
        </mxCell>
        <mxCell id="ifBIQLZX5WPQYEV2Vhft-73" value="" style="group" parent="ifBIQLZX5WPQYEV2Vhft-71" vertex="1" connectable="0">
          <mxGeometry y="40.00000000000023" width="250" height="340" as="geometry" />
        </mxCell>
        <mxCell id="ifBIQLZX5WPQYEV2Vhft-74" value="" style="group" parent="ifBIQLZX5WPQYEV2Vhft-73" vertex="1" connectable="0">
          <mxGeometry x="30" width="220" height="340" as="geometry" />
        </mxCell>
        <mxCell id="ifBIQLZX5WPQYEV2Vhft-75" value="ネコちゃん情報登録画面&lt;br&gt;&lt;br&gt;写真　　　　&lt;br&gt;&lt;br&gt;&lt;br&gt;名前　　　　&lt;br&gt;&lt;br&gt;性別　〇オス　〇メス&lt;br&gt;&lt;br&gt;年齢　　　　&lt;br&gt;&lt;br&gt;体重　　　　&lt;br&gt;&lt;br&gt;　　&lt;br&gt;&lt;br&gt;コメント　　　　　　&lt;br&gt;&lt;br&gt;&lt;br&gt;&lt;br&gt;&lt;br&gt;　　　　　　　　　　　　　　　　&lt;u&gt;戻る&lt;/u&gt;" style="rounded=0;whiteSpace=wrap;html=1;verticalAlign=top;" parent="ifBIQLZX5WPQYEV2Vhft-74" vertex="1">
          <mxGeometry width="220" height="340" as="geometry" />
        </mxCell>
        <mxCell id="ifBIQLZX5WPQYEV2Vhft-76" value="" style="rounded=0;whiteSpace=wrap;html=1;" parent="ifBIQLZX5WPQYEV2Vhft-74" vertex="1">
          <mxGeometry x="100" y="85.33333333333333" width="90" height="10.666666666666666" as="geometry" />
        </mxCell>
        <mxCell id="ifBIQLZX5WPQYEV2Vhft-77" value="" style="rounded=0;whiteSpace=wrap;html=1;" parent="ifBIQLZX5WPQYEV2Vhft-74" vertex="1">
          <mxGeometry x="100" y="135" width="70" height="10.67" as="geometry" />
        </mxCell>
        <mxCell id="ifBIQLZX5WPQYEV2Vhft-78" value="" style="rounded=0;whiteSpace=wrap;html=1;" parent="ifBIQLZX5WPQYEV2Vhft-74" vertex="1">
          <mxGeometry x="105" y="170.00333333333333" width="60" height="10.666666666666666" as="geometry" />
        </mxCell>
        <mxCell id="ifBIQLZX5WPQYEV2Vhft-79" value="" style="rounded=0;whiteSpace=wrap;html=1;" parent="ifBIQLZX5WPQYEV2Vhft-74" vertex="1">
          <mxGeometry x="110" y="220" width="90" height="64" as="geometry" />
        </mxCell>
        <mxCell id="ifBIQLZX5WPQYEV2Vhft-80" value="登録" style="rounded=0;whiteSpace=wrap;html=1;" parent="ifBIQLZX5WPQYEV2Vhft-74" vertex="1">
          <mxGeometry x="80" y="288" width="40" height="21.333333333333332" as="geometry" />
        </mxCell>
        <mxCell id="ifBIQLZX5WPQYEV2Vhft-81" value="アップロード" style="rounded=0;whiteSpace=wrap;html=1;" parent="ifBIQLZX5WPQYEV2Vhft-74" vertex="1">
          <mxGeometry x="105" y="40" width="80" height="21.333333333333332" as="geometry" />
        </mxCell>
        <mxCell id="ifBIQLZX5WPQYEV2Vhft-82" value="編集" style="rounded=0;whiteSpace=wrap;html=1;fillColor=none;strokeColor=none;" parent="ifBIQLZX5WPQYEV2Vhft-73" vertex="1">
          <mxGeometry x="-36" y="75.99999999999977" width="56" height="20" as="geometry" />
        </mxCell>
        <mxCell id="ifBIQLZX5WPQYEV2Vhft-83" value="" style="endArrow=classic;html=1;rounded=0;exitX=1.002;exitY=0.058;exitDx=0;exitDy=0;exitPerimeter=0;" parent="1" source="ifBIQLZX5WPQYEV2Vhft-94" edge="1">
          <mxGeometry width="50" height="50" relative="1" as="geometry">
            <mxPoint x="390" y="1930" as="sourcePoint" />
            <mxPoint x="550" y="1780" as="targetPoint" />
            <Array as="points">
              <mxPoint x="270" y="1870" />
              <mxPoint x="270" y="1770" />
            </Array>
          </mxGeometry>
        </mxCell>
        <mxCell id="ifBIQLZX5WPQYEV2Vhft-84" value="" style="endArrow=classic;html=1;rounded=0;entryX=0.997;entryY=0.156;entryDx=0;entryDy=0;exitX=-0.008;exitY=0.936;exitDx=0;exitDy=0;exitPerimeter=0;entryPerimeter=0;" parent="1" source="ifBIQLZX5WPQYEV2Vhft-58" target="ifBIQLZX5WPQYEV2Vhft-94" edge="1">
          <mxGeometry width="50" height="50" relative="1" as="geometry">
            <mxPoint x="390" y="1930" as="sourcePoint" />
            <mxPoint x="440" y="1880" as="targetPoint" />
            <Array as="points">
              <mxPoint x="300" y="1780" />
              <mxPoint x="300" y="1903" />
            </Array>
          </mxGeometry>
        </mxCell>
        <mxCell id="ifBIQLZX5WPQYEV2Vhft-85" value="" style="endArrow=classic;html=1;rounded=0;entryX=0.75;entryY=0;entryDx=0;entryDy=0;exitX=0.698;exitY=1.009;exitDx=0;exitDy=0;exitPerimeter=0;" parent="1" source="ifBIQLZX5WPQYEV2Vhft-58" target="ifBIQLZX5WPQYEV2Vhft-50" edge="1">
          <mxGeometry width="50" height="50" relative="1" as="geometry">
            <mxPoint x="390" y="1930" as="sourcePoint" />
            <mxPoint x="440" y="1880" as="targetPoint" />
          </mxGeometry>
        </mxCell>
        <mxCell id="ifBIQLZX5WPQYEV2Vhft-86" value="" style="endArrow=classic;html=1;rounded=0;entryX=0.5;entryY=1;entryDx=0;entryDy=0;exitX=0.383;exitY=-0.066;exitDx=0;exitDy=0;exitPerimeter=0;" parent="1" source="ifBIQLZX5WPQYEV2Vhft-50" target="ifBIQLZX5WPQYEV2Vhft-58" edge="1">
          <mxGeometry width="50" height="50" relative="1" as="geometry">
            <mxPoint x="390" y="1930" as="sourcePoint" />
            <mxPoint x="440" y="1880" as="targetPoint" />
          </mxGeometry>
        </mxCell>
        <mxCell id="ifBIQLZX5WPQYEV2Vhft-87" value="" style="endArrow=classic;html=1;rounded=0;entryX=1.007;entryY=0.156;entryDx=0;entryDy=0;entryPerimeter=0;exitX=0.25;exitY=1;exitDx=0;exitDy=0;" parent="1" source="ifBIQLZX5WPQYEV2Vhft-58" target="ifBIQLZX5WPQYEV2Vhft-75" edge="1">
          <mxGeometry width="50" height="50" relative="1" as="geometry">
            <mxPoint x="390" y="1930" as="sourcePoint" />
            <mxPoint x="440" y="1880" as="targetPoint" />
            <Array as="points">
              <mxPoint x="608" y="1883" />
            </Array>
          </mxGeometry>
        </mxCell>
        <mxCell id="ifBIQLZX5WPQYEV2Vhft-88" value="" style="endArrow=classic;html=1;rounded=0;entryX=0.398;entryY=0.998;entryDx=0;entryDy=0;entryPerimeter=0;exitX=1;exitY=0.25;exitDx=0;exitDy=0;" parent="1" source="ifBIQLZX5WPQYEV2Vhft-75" target="ifBIQLZX5WPQYEV2Vhft-58" edge="1">
          <mxGeometry width="50" height="50" relative="1" as="geometry">
            <mxPoint x="390" y="1930" as="sourcePoint" />
            <mxPoint x="440" y="1880" as="targetPoint" />
            <Array as="points">
              <mxPoint x="640" y="1915" />
            </Array>
          </mxGeometry>
        </mxCell>
        <mxCell id="ifBIQLZX5WPQYEV2Vhft-89" value="登録" style="rounded=0;whiteSpace=wrap;html=1;fillColor=none;strokeColor=none;" parent="1" vertex="1">
          <mxGeometry x="328.5" y="1355" width="20" height="30" as="geometry" />
        </mxCell>
        <mxCell id="ifBIQLZX5WPQYEV2Vhft-90" value="ログイン" style="rounded=0;whiteSpace=wrap;html=1;fillColor=none;strokeColor=none;" parent="1" vertex="1">
          <mxGeometry x="275" y="1450" width="10" height="40" as="geometry" />
        </mxCell>
        <mxCell id="ifBIQLZX5WPQYEV2Vhft-91" value="マイページ" style="rounded=0;whiteSpace=wrap;html=1;fillColor=none;strokeColor=none;" parent="1" vertex="1">
          <mxGeometry x="241.5" y="1510" width="70" height="10" as="geometry" />
        </mxCell>
        <mxCell id="ifBIQLZX5WPQYEV2Vhft-92" value="トップへ戻る" style="rounded=0;whiteSpace=wrap;html=1;fillColor=none;strokeColor=none;" parent="1" vertex="1">
          <mxGeometry x="240" y="1550" width="80" height="20" as="geometry" />
        </mxCell>
        <mxCell id="ifBIQLZX5WPQYEV2Vhft-93" value="" style="group" parent="1" vertex="1" connectable="0">
          <mxGeometry x="40" y="1850" width="220" height="340" as="geometry" />
        </mxCell>
        <mxCell id="ifBIQLZX5WPQYEV2Vhft-94" value="ネコちゃん情報編集画面&lt;br&gt;&lt;br&gt;写真　　　　&lt;br&gt;&lt;br&gt;&lt;br&gt;名前　　　　&lt;br&gt;&lt;br&gt;性別　〇オス　〇メス&lt;br&gt;&lt;br&gt;年齢　　　　&lt;br&gt;　　　　&lt;br&gt;&lt;br&gt;コメント　　　　　　&lt;br&gt;&lt;br&gt;&lt;br&gt;&lt;br&gt;&lt;br&gt;&lt;br&gt;&lt;br&gt;&lt;br&gt;&lt;br&gt;　　　　　　　　　　　　　　　　&lt;u&gt;戻る&lt;/u&gt;" style="rounded=0;whiteSpace=wrap;html=1;verticalAlign=top;" parent="ifBIQLZX5WPQYEV2Vhft-93" vertex="1">
          <mxGeometry width="220" height="340" as="geometry" />
        </mxCell>
        <mxCell id="ifBIQLZX5WPQYEV2Vhft-95" value="" style="rounded=0;whiteSpace=wrap;html=1;" parent="ifBIQLZX5WPQYEV2Vhft-93" vertex="1">
          <mxGeometry x="105" y="80.00333333333333" width="90" height="10.666666666666666" as="geometry" />
        </mxCell>
        <mxCell id="ifBIQLZX5WPQYEV2Vhft-96" value="" style="rounded=0;whiteSpace=wrap;html=1;" parent="ifBIQLZX5WPQYEV2Vhft-93" vertex="1">
          <mxGeometry x="105" y="139.33333333333326" width="90" height="10.666666666666666" as="geometry" />
        </mxCell>
        <mxCell id="ifBIQLZX5WPQYEV2Vhft-97" value="" style="rounded=0;whiteSpace=wrap;html=1;" parent="ifBIQLZX5WPQYEV2Vhft-93" vertex="1">
          <mxGeometry x="110" y="208.67000000000007" width="90" height="64" as="geometry" />
        </mxCell>
        <mxCell id="ifBIQLZX5WPQYEV2Vhft-98" value="更新" style="rounded=0;whiteSpace=wrap;html=1;" parent="ifBIQLZX5WPQYEV2Vhft-93" vertex="1">
          <mxGeometry x="100" y="279.6700000000001" width="40" height="21.333333333333332" as="geometry" />
        </mxCell>
        <mxCell id="ifBIQLZX5WPQYEV2Vhft-99" value="写真" style="ellipse;whiteSpace=wrap;html=1;" parent="ifBIQLZX5WPQYEV2Vhft-93" vertex="1">
          <mxGeometry x="110" y="29" width="95" height="44.29" as="geometry" />
        </mxCell>
        <mxCell id="ifBIQLZX5WPQYEV2Vhft-100" value="" style="group" parent="1" vertex="1" connectable="0">
          <mxGeometry x="60" y="1670" width="120" height="90" as="geometry" />
        </mxCell>
        <mxCell id="ifBIQLZX5WPQYEV2Vhft-101" value="ログアウトしました&lt;br&gt;&lt;u&gt;トップへ戻る&lt;/u&gt;" style="rounded=0;whiteSpace=wrap;html=1;" parent="ifBIQLZX5WPQYEV2Vhft-100" vertex="1">
          <mxGeometry y="30" width="120" height="60" as="geometry" />
        </mxCell>
        <mxCell id="ifBIQLZX5WPQYEV2Vhft-102" value="ログアウト完了画面" style="rounded=0;whiteSpace=wrap;html=1;fillColor=default;strokeColor=default;" parent="ifBIQLZX5WPQYEV2Vhft-100" vertex="1">
          <mxGeometry width="120" height="20" as="geometry" />
        </mxCell>
        <mxCell id="ifBIQLZX5WPQYEV2Vhft-103" value="" style="endArrow=classic;html=1;rounded=0;exitX=0.75;exitY=0;exitDx=0;exitDy=0;entryX=0.654;entryY=1.011;entryDx=0;entryDy=0;entryPerimeter=0;" parent="1" source="ifBIQLZX5WPQYEV2Vhft-102" target="ifBIQLZX5WPQYEV2Vhft-20" edge="1">
          <mxGeometry width="50" height="50" relative="1" as="geometry">
            <mxPoint x="390" y="1750" as="sourcePoint" />
            <mxPoint x="440" y="1700" as="targetPoint" />
          </mxGeometry>
        </mxCell>
        <mxCell id="ifBIQLZX5WPQYEV2Vhft-104" value="" style="endArrow=classic;html=1;rounded=0;exitX=0.381;exitY=1.002;exitDx=0;exitDy=0;exitPerimeter=0;entryX=0.319;entryY=0.045;entryDx=0;entryDy=0;entryPerimeter=0;" parent="1" source="ifBIQLZX5WPQYEV2Vhft-20" target="ifBIQLZX5WPQYEV2Vhft-102" edge="1">
          <mxGeometry width="50" height="50" relative="1" as="geometry">
            <mxPoint x="390" y="1750" as="sourcePoint" />
            <mxPoint x="440" y="1700" as="targetPoint" />
          </mxGeometry>
        </mxCell>
        <mxCell id="ifBIQLZX5WPQYEV2Vhft-105" value="ログアウト" style="rounded=0;whiteSpace=wrap;html=1;fillColor=none;strokeColor=none;" parent="1" vertex="1">
          <mxGeometry x="25" y="1640" width="70" height="20" as="geometry" />
        </mxCell>
        <mxCell id="ifBIQLZX5WPQYEV2Vhft-106" value="トップへ戻る" style="rounded=0;whiteSpace=wrap;html=1;fillColor=none;strokeColor=none;" parent="1" vertex="1">
          <mxGeometry x="160" y="1640" width="80" height="20" as="geometry" />
        </mxCell>
        <mxCell id="ifBIQLZX5WPQYEV2Vhft-107" value="更新" style="rounded=0;whiteSpace=wrap;html=1;fillColor=none;strokeColor=none;" parent="1" vertex="1">
          <mxGeometry x="229" y="1790" width="40" height="20" as="geometry" />
        </mxCell>
        <mxCell id="ifBIQLZX5WPQYEV2Vhft-108" value="登録する" style="rounded=0;whiteSpace=wrap;html=1;fillColor=none;strokeColor=none;" parent="1" vertex="1">
          <mxGeometry x="535" y="1850" width="15" height="20" as="geometry" />
        </mxCell>
        <mxCell id="ifBIQLZX5WPQYEV2Vhft-109" value="登録" style="rounded=0;whiteSpace=wrap;html=1;fillColor=none;strokeColor=none;" parent="1" vertex="1">
          <mxGeometry x="550" y="1890" width="20" height="20" as="geometry" />
        </mxCell>
        <mxCell id="ifBIQLZX5WPQYEV2Vhft-110" value="" style="endArrow=classic;html=1;rounded=0;exitX=0.007;exitY=0.876;exitDx=0;exitDy=0;exitPerimeter=0;entryX=1;entryY=0.75;entryDx=0;entryDy=0;" parent="1" source="ifBIQLZX5WPQYEV2Vhft-58" target="ifBIQLZX5WPQYEV2Vhft-101" edge="1">
          <mxGeometry width="50" height="50" relative="1" as="geometry">
            <mxPoint x="390" y="1750" as="sourcePoint" />
            <mxPoint x="440" y="1700" as="targetPoint" />
          </mxGeometry>
        </mxCell>
        <mxCell id="ifBIQLZX5WPQYEV2Vhft-111" value="ログアウト" style="rounded=0;whiteSpace=wrap;html=1;fillColor=none;strokeColor=none;" parent="1" vertex="1">
          <mxGeometry x="215" y="1720" width="70" height="20" as="geometry" />
        </mxCell>
        <mxCell id="ifBIQLZX5WPQYEV2Vhft-112" value="ユーザー情報の編集" style="rounded=0;whiteSpace=wrap;html=1;fillColor=none;strokeColor=none;" parent="1" vertex="1">
          <mxGeometry x="510" y="1590" width="20" height="10" as="geometry" />
        </mxCell>
        <mxCell id="ifBIQLZX5WPQYEV2Vhft-113" value="更新" style="rounded=0;whiteSpace=wrap;html=1;fillColor=none;strokeColor=none;" parent="1" vertex="1">
          <mxGeometry x="510" y="1680" width="20" height="20" as="geometry" />
        </mxCell>
        <mxCell id="ifBIQLZX5WPQYEV2Vhft-128" value="成功時" style="rounded=0;whiteSpace=wrap;html=1;fillColor=none;strokeColor=none;" parent="1" vertex="1">
          <mxGeometry x="580" y="2170" width="21" height="20" as="geometry" />
        </mxCell>
        <mxCell id="ifBIQLZX5WPQYEV2Vhft-131" value="送信失敗" style="rounded=0;whiteSpace=wrap;html=1;fillColor=none;strokeColor=none;" parent="1" vertex="1">
          <mxGeometry x="781" y="2090" width="20" height="60" as="geometry" />
        </mxCell>
        <mxCell id="ifBIQLZX5WPQYEV2Vhft-133" value="返信" style="rounded=0;whiteSpace=wrap;html=1;fillColor=none;strokeColor=none;" parent="1" vertex="1">
          <mxGeometry x="720" y="1850" width="30" height="20" as="geometry" />
        </mxCell>
        <mxCell id="ifBIQLZX5WPQYEV2Vhft-134" value="前へ戻る" style="rounded=0;whiteSpace=wrap;html=1;fillColor=none;strokeColor=none;" parent="1" vertex="1">
          <mxGeometry x="667.5" y="1870" width="25" height="17.5" as="geometry" />
        </mxCell>
        <mxCell id="ifBIQLZX5WPQYEV2Vhft-136" value="" style="endArrow=classic;html=1;rounded=0;entryX=0.099;entryY=0.998;entryDx=0;entryDy=0;entryPerimeter=0;exitX=-0.006;exitY=0.888;exitDx=0;exitDy=0;exitPerimeter=0;" parent="1" source="ifBIQLZX5WPQYEV2Vhft-52" target="ifBIQLZX5WPQYEV2Vhft-58" edge="1">
          <mxGeometry width="50" height="50" relative="1" as="geometry">
            <mxPoint x="580" y="2240" as="sourcePoint" />
            <mxPoint x="692.5" y="2190" as="targetPoint" />
            <Array as="points">
              <mxPoint x="580" y="2210" />
              <mxPoint x="580" y="1930" />
              <mxPoint x="600" y="1930" />
              <mxPoint x="600" y="1860" />
              <mxPoint x="573" y="1860" />
            </Array>
          </mxGeometry>
        </mxCell>
        <mxCell id="45_v_wAbbeRh8CHD0ImP-2" value="登録失敗" style="rounded=0;whiteSpace=wrap;html=1;fillColor=none;strokeColor=none;" parent="1" vertex="1">
          <mxGeometry x="265" y="1290" width="20" height="40" as="geometry" />
        </mxCell>
      </root>
    </mxGraphModel>
  </diagram>
</mxfile>
